<svg width="59" height="38" viewBox="0 0 59 38" fill="none" xmlns="http://www.w3.org/2000/svg">
<path d="M39.6513 1.78761C49.1573 1.78761 56.8649 9.49465 56.8649 19C56.8649 28.5054 49.1573 36.2124 39.6513 36.2124H18.9907C9.48463 36.2124 1.77703 28.5054 1.77703 19C1.77703 9.49465 9.48463 1.78761 18.9907 1.78761H39.6513ZM39.6513 0H18.9907C16.4322 0 13.9379 0.503099 11.5935 1.49859C9.33476 2.45127 7.30081 3.82141 5.55589 5.5662C3.81098 7.31099 2.44074 9.34479 1.48799 11.6034C0.49243 13.9476 0 16.431 0 19C0 21.569 0.503135 24.0524 1.48799 26.3966C2.44074 28.6552 3.81098 30.689 5.55589 32.4338C7.30081 34.1786 9.33476 35.5487 11.5935 36.5014C13.9379 37.4969 16.4215 38 18.9907 38H39.6513C42.2098 38 44.7041 37.4969 47.0485 36.5014C49.3072 35.5487 51.3412 34.1786 53.0861 32.4338C54.831 30.689 56.2012 28.6552 57.154 26.3966C58.1495 24.0524 58.642 21.569 58.642 19C58.642 16.431 58.1388 13.9476 57.154 11.6034C56.2012 9.34479 54.831 7.31099 53.0861 5.5662C51.3412 3.82141 49.3072 2.45127 47.0485 1.49859C44.7041 0.503099 42.2205 0 39.6513 0Z" fill="white"/>
<path d="M39.7155 3.00781C41.8779 3.00781 43.9654 3.42527 45.9351 4.2602C47.8406 5.06302 49.5427 6.21908 51.02 7.68556C52.4866 9.15203 53.6427 10.8647 54.4456 12.7701C55.2806 14.7396 55.6981 16.8377 55.6981 18.9892C55.6981 21.1408 55.2806 23.2388 54.4456 25.2084C53.6427 27.1137 52.4866 28.8264 51.02 30.2929C49.5534 31.7594 47.8406 32.9154 45.9351 33.7182C43.9654 34.5532 41.8779 34.9706 39.7155 34.9706H18.9371C16.7747 34.9706 14.6872 34.5532 12.7175 33.7182C10.812 32.9154 9.10993 31.7594 7.63264 30.2929C6.16605 28.8264 5.00992 27.1137 4.20704 25.2084C3.37205 23.2388 2.95456 21.1408 2.95456 18.9892C2.95456 16.8377 3.37205 14.7396 4.20704 12.7701C5.00992 10.8647 6.16605 9.15203 7.63264 7.68556C9.09922 6.21908 10.812 5.06302 12.7175 4.2602C14.6872 3.42527 16.7747 3.00781 18.9371 3.00781H39.7155ZM39.7155 1.78753H18.9371C9.42037 1.78753 1.72348 9.49457 1.72348 18.9999C1.72348 28.5053 9.43108 36.2123 18.9371 36.2123H39.7155C49.2216 36.2123 56.9291 28.5053 56.9291 18.9999C56.9291 9.49457 49.2216 1.78753 39.7155 1.78753Z" fill="black"/>
<path d="M55.6874 18.9998C55.6874 16.8376 55.2699 14.7503 54.4349 12.7807C53.632 10.8753 52.4759 9.16265 51.0093 7.69617C49.5427 6.22969 47.8299 5.07363 45.9244 4.27082C43.9547 3.43589 41.8672 3.01842 39.7048 3.01842H18.9264C16.764 3.01842 14.6766 3.43589 12.7068 4.27082C10.8013 5.07363 9.09925 6.22969 7.62196 7.69617C6.15538 9.16265 4.99924 10.8753 4.19637 12.7807C3.36138 14.7503 2.94388 16.8483 2.94388 18.9998C2.94388 21.1514 3.36138 23.2494 4.19637 25.219C4.99924 27.1243 6.15538 28.837 7.62196 30.3035C9.08855 31.77 10.8013 32.926 12.7068 33.7288C14.6766 34.5638 16.764 34.9812 18.9264 34.9812H39.7048C41.8672 34.9812 43.9547 34.5638 45.9244 33.7288C47.8299 32.926 49.532 31.77 51.0093 30.3035C52.4759 28.837 53.632 27.1243 54.4349 25.219C55.2699 23.2494 55.6874 21.1514 55.6874 18.9998Z" fill="#FFC200"/>
<path d="M14.6124 17.3622L10.2554 18.3042L9.77371 21.205L14.1413 20.2523L14.6124 17.3622Z" fill="black"/>
<path d="M27.5119 12.1813L21.4636 13.4766L21.3351 14.2473L27.3834 12.9413L27.5119 12.1813Z" fill="black"/>
<path d="M43.7514 11.1751L41.9101 21.4084L42.2741 21.2157C42.5417 21.0766 42.7558 20.8089 42.7986 20.552L44.5221 11.0039L43.7407 11.1751H43.7514Z" fill="black"/>
<path d="M27.9294 9.62305L21.8918 10.854L21.7633 11.6461L27.8009 10.4045L27.9294 9.62305Z" fill="black"/>
<path d="M57.1647 7.88895L56.0728 6.42247C56.0728 6.42247 56.0621 6.41177 56.0514 6.40107C56.0407 6.37966 56.0193 6.36895 55.9979 6.34754C55.9979 6.34754 55.9765 6.33684 55.9658 6.32614C55.9444 6.31543 55.9337 6.30473 55.9123 6.29402C55.9015 6.29402 55.8908 6.29402 55.8801 6.28332C55.8587 6.28332 55.8373 6.27262 55.8159 6.27262C55.8052 6.27262 55.7945 6.27262 55.7731 6.27262C55.7731 6.27262 55.7624 6.27262 55.7517 6.27262C55.7196 6.27262 55.6982 6.27262 55.666 6.27262L53.8997 6.64726L53.1932 5.70529C53.1932 5.70529 53.1825 5.69459 53.1718 5.68388C53.1611 5.66247 53.1397 5.65177 53.1182 5.63036C53.1182 5.63036 53.0968 5.61966 53.0861 5.60895C53.0647 5.59825 53.054 5.58754 53.0326 5.57684C53.0219 5.57684 53.0112 5.57684 52.9898 5.56614C52.9684 5.56614 52.947 5.56614 52.9256 5.55543C52.9149 5.55543 52.8934 5.55543 52.8827 5.55543C52.8827 5.55543 52.872 5.55543 52.8613 5.55543C52.8292 5.55543 52.8078 5.55543 52.7757 5.55543L49.3501 6.28332C49.2109 6.31543 49.1146 6.41177 49.0611 6.52952C49.0504 6.56163 49.0396 6.59374 49.0396 6.63656L48.954 7.68557L47.6801 7.95318L47.5302 7.7605C47.5302 7.7605 47.5302 7.7605 47.5195 7.7498C47.5195 7.7498 47.5195 7.73909 47.5088 7.72839C47.4981 7.71769 47.4874 7.70698 47.466 7.69628C47.466 7.69628 47.466 7.69628 47.4553 7.68557C47.4339 7.66416 47.4018 7.65346 47.3697 7.64276C47.3697 7.64276 47.359 7.64276 47.3483 7.64276C47.3268 7.64276 47.2947 7.63205 47.2733 7.63205C47.2733 7.63205 47.2626 7.63205 47.2519 7.63205C47.2519 7.63205 47.2519 7.63205 47.2412 7.63205C47.2091 7.63205 47.1877 7.63205 47.1556 7.63205L46.3527 7.80332L44.8861 8.12445L43.2375 8.48839C43.2697 8.34924 43.2375 8.23149 43.1733 8.12445L42.0814 6.65797C42.0814 6.65797 42.0814 6.65797 42.0707 6.64726C42.0707 6.64726 42.0707 6.63656 42.06 6.62585C42.0493 6.61515 42.0386 6.60445 42.0172 6.59374C42.0172 6.59374 42.0172 6.59374 42.0065 6.58304C41.9743 6.56163 41.9529 6.55093 41.9208 6.54022C41.9208 6.54022 41.9101 6.54022 41.8994 6.54022C41.878 6.54022 41.8459 6.52952 41.8245 6.51881C41.8245 6.51881 41.8031 6.51881 41.7924 6.51881C41.7924 6.51881 41.7817 6.51881 41.7709 6.51881C41.7388 6.51881 41.7174 6.51881 41.6853 6.51881L38.9127 7.12895C38.9127 7.12895 38.9127 7.12895 38.902 7.12895L38.6023 7.19318L35.273 7.92107C35.273 7.92107 35.273 7.92107 35.2623 7.92107L34.9626 7.98529L34.2025 8.15656L33.9028 8.22078C33.9028 8.22078 33.9028 8.22078 33.8921 8.22078L32.0187 8.62755L31.0767 7.35374C31.0767 7.35374 31.0767 7.35374 31.066 7.34304C31.0445 7.32163 31.0338 7.30022 31.0124 7.27881C31.0124 7.27881 30.991 7.26811 30.9803 7.2574C30.9589 7.2467 30.9375 7.236 30.9161 7.22529C30.9054 7.22529 30.8947 7.22529 30.884 7.21459C30.8626 7.21459 30.8411 7.20388 30.8197 7.20388C30.809 7.20388 30.7983 7.20388 30.7876 7.20388C30.7876 7.20388 30.7769 7.20388 30.7662 7.20388C30.7448 7.20388 30.7127 7.20388 30.6913 7.20388L19.8578 9.35543L19.162 8.40276C19.162 8.40276 19.1513 8.39205 19.1406 8.38135C19.1406 8.37064 19.1192 8.35994 19.1085 8.34924C19.1085 8.34924 19.0871 8.33853 19.0871 8.32783C19.0871 8.32783 19.0764 8.32783 19.0656 8.31712C19.0335 8.29571 19.0121 8.28501 18.98 8.27431C18.9479 8.27431 18.9265 8.2529 18.8944 8.2529C18.8944 8.2529 18.8837 8.2529 18.873 8.2529C18.873 8.2529 18.8623 8.2529 18.8516 8.2529C18.8194 8.2529 18.798 8.2529 18.7659 8.2529L8.62828 10.3937L8.2429 10.4794C8.2429 10.4794 8.18937 10.4901 8.16796 10.5008C8.12514 10.5222 8.08232 10.5436 8.05021 10.5757C8.0288 10.5971 8.00739 10.6292 7.98598 10.6506C7.97527 10.6721 7.96457 10.6935 7.95386 10.7149C7.93245 10.7684 7.92175 10.8433 7.93245 10.9075L8.08232 12.1706L7.91104 13.1661L7.27945 16.9233L6.9583 18.8715L6.89407 19.2247L5.63088 26.7819L4.49615 27.0388C4.3891 27.0602 4.29275 27.1351 4.23923 27.2208C4.22852 27.2422 4.21782 27.2743 4.20711 27.2957C4.20711 27.3171 4.19641 27.3385 4.19641 27.3706C4.19641 27.4242 4.19641 27.4777 4.20711 27.5312L4.88153 29.7577C4.88153 29.7577 4.91364 29.8433 4.94576 29.8754L6.03767 31.3419C6.1126 31.4382 6.23036 31.5025 6.35882 31.5025C6.39093 31.5025 6.41234 31.5025 6.44446 31.5025L16.0897 29.3295C16.0897 29.3295 16.0897 29.3295 16.0897 29.3402C16.0897 29.3616 16.0897 29.383 16.1004 29.4044C16.1004 29.4151 16.1004 29.4366 16.1111 29.4473C16.1111 29.4687 16.1325 29.4901 16.1432 29.5115C16.1432 29.5115 16.1432 29.5329 16.1646 29.5436L17.2565 31.0101C17.3743 31.1706 17.5884 31.2135 17.7596 31.1278L23.4975 28.1413L28.4968 28.2591C28.6894 28.2591 28.8607 28.1199 28.8928 27.9273L29.1283 26.525L29.4067 27.5633C29.4067 27.6061 29.4388 27.6382 29.4602 27.6704C29.4602 27.6704 29.4602 27.6704 29.4602 27.6811L30.5521 29.1475C30.6485 29.2653 30.7983 29.3295 30.9482 29.2974L37.2106 28.045C37.6067 27.9701 37.9814 27.7453 38.2918 27.4349C38.2918 27.4349 38.2918 27.4349 38.2918 27.4456C38.2918 27.4884 38.2918 27.5205 38.3132 27.5633C38.3239 27.5954 38.3454 27.6275 38.3668 27.6597C38.3668 27.6597 38.3668 27.6597 38.3668 27.6704L39.4587 29.1368C39.555 29.2546 39.7049 29.3188 39.8548 29.2867L42.0921 28.8264C42.2527 28.7943 42.3704 28.6659 42.4025 28.5053L42.9271 25.5616L43.5266 25.2619C43.4945 25.3368 43.4516 25.4011 43.4195 25.476C43.3874 25.5295 43.3553 25.583 43.3232 25.6473C43.2161 25.8399 43.1091 26.0326 42.9913 26.2253C42.9699 26.2574 42.9592 26.3002 42.9485 26.3323C42.9485 26.343 42.9485 26.3537 42.9485 26.3644C42.9485 26.3859 42.9485 26.418 42.9485 26.4394C42.9485 26.4501 42.9485 26.4715 42.9485 26.4822C42.9485 26.5036 42.9485 26.525 42.9592 26.5464C42.9592 26.5571 42.9699 26.5785 42.9806 26.5892C42.9806 26.6106 42.9913 26.632 43.0127 26.6428L44.1046 28.1092C44.201 28.227 44.3509 28.2912 44.5007 28.2591L47.2198 27.6918C47.3268 27.6704 47.4232 27.6061 47.4767 27.5098C47.9263 26.7712 48.3224 26.0219 48.6543 25.2619C48.7185 25.3475 48.7827 25.4439 48.8577 25.5402C49.2645 26.0968 49.5535 26.4929 49.6819 26.6213C49.971 26.9211 50.4206 27.0281 50.9023 26.9318L52.2618 26.6535C52.3582 26.6321 52.4545 26.5785 52.5081 26.4929L54.4029 23.7312C54.4992 23.5921 54.4992 23.4101 54.4029 23.2709L53.418 21.9436L53.8783 19.5351L54.435 19.4174C54.5955 19.3853 54.7133 19.2568 54.7454 19.107L55.0773 17.3622L55.4626 16.7521C55.5483 16.6129 55.5483 16.4309 55.4412 16.3025L54.9274 15.6281L55.013 15.6067C55.1736 15.5746 55.2914 15.4461 55.3235 15.2963L55.8159 12.7166C55.8159 12.7166 55.8159 12.6416 55.8159 12.6095C55.9658 12.5774 56.0835 12.449 56.1049 12.2991L56.7794 8.89515L57.1861 8.28501C57.2825 8.14585 57.2718 7.96388 57.1754 7.83543L57.1647 7.88895ZM38.8485 8.03881L38.6986 7.56783L38.9984 7.5036L41.7817 6.89346L41.0537 9.47318L38.2918 10.0726L38.8485 8.03881ZM35.2088 8.83093L35.0482 8.37064L35.348 8.30642L38.1098 7.70698L37.414 10.2653L34.6735 10.854L35.1981 8.83093H35.2088ZM31.2693 9.19487L33.9991 8.59543L34.2989 8.53121L33.9563 9.10924L33.785 11.0467L31.0767 11.6354L31.2801 9.20557L31.2693 9.19487ZM32.9393 11.5498L41.1072 9.7943L40.5292 12.4704L32.2756 14.2152L31.5798 18.2399L29.4281 18.6788L30.0704 14.8253L30.4344 12.6737L30.2417 12.1385L30.5307 12.0743L32.9393 11.5605V11.5498ZM18.873 14.7825L19.0014 14.0011L19.3012 12.1599L19.4296 11.3571L19.6865 9.7943L22.1487 9.30191L28.1863 8.10304L30.4879 7.64276L30.7662 7.58923L30.3915 8.22078L30.2417 9.14135L30.1132 9.91205L29.8242 11.6782L29.6957 12.4275L29.4495 13.9261L18.616 16.3346L18.873 14.7718V14.7825ZM5.23479 29.6613L4.56038 27.4349L5.96273 27.1244L6.84054 21.858L7.33297 18.9464L8.28572 13.2304L8.457 12.1813L8.30713 10.854L8.69251 10.7684L18.8301 8.62755V8.68107L18.4341 11.0574L16.2716 24.1487L13.3706 24.7909L13.6382 23.1746L9.27058 24.138L8.8852 26.4394L16.5393 24.7267L16.1325 27.178L5.22409 29.6399L5.23479 29.6613ZM28.4004 20.2844L28.2398 21.2799L28.197 21.5261C28.0578 22.3932 27.4798 23.2923 26.709 23.9025H26.8482L27.8009 23.9346L27.3941 26.3966L22.2986 26.2788L16.4643 29.3188L16.8818 26.7498L18.0059 26.1718L18.5518 25.8935L25.4137 22.3718C25.6171 22.2647 25.7884 22.0721 25.8847 21.8687L19.8471 23.3673L19.633 24.6732L17.0424 26.0005L17.3743 23.9774L17.6419 22.329L26.1738 20.263L28.486 19.7064L28.7644 19.6422L28.3897 20.2844H28.4004ZM28.6145 18.9678L26.2915 19.5244L26.7411 16.8163L20.6821 18.2078L20.5215 19.2033L25.7135 17.9937L25.4351 19.7278L20.2325 20.9802L17.7596 21.569L18.4876 17.1374H18.4983L20.9497 16.5808L27.0088 15.2213L29.321 14.7075L28.6145 18.9678ZM38.0563 21.4405L37.4247 24.7802C37.2963 25.4439 36.6754 26.0861 36.0331 26.2146L29.7706 27.467L29.1819 25.2833L35.3265 24.0416L35.7119 21.9222L29.3424 23.2281L29.0427 20.6805L36.2151 19.1819L36.6004 17.0411L32.6824 17.876L33.1641 15.0715L39.5229 13.6906L39.8976 13.605L39.2446 15.1571L38.9448 16.7521L38.5809 18.6681L39.3623 18.5075L38.8378 21.2692L38.067 21.4298L38.0563 21.4405ZM42.8414 23.1853L41.4712 23.8704L40.9038 27.0067L38.6665 27.467L41.8994 9.19487L44.9717 8.5098L47.2412 8.0067L44.9503 20.5199C44.7576 21.569 43.9012 22.6394 42.82 23.1853H42.8414ZM53.5893 15.7887L53.236 17.6084L52.4224 17.7797L51.5446 22.3825L52.9684 22.0828L51.0736 24.8444L49.7141 25.1228C49.0075 25.2726 48.5472 24.8337 48.6757 24.1594L49.7676 18.3363L48.5258 18.6039L48.1618 20.5413C47.83 22.3182 47.102 24.138 46.0315 25.8935L43.3125 26.4608C44.3723 24.716 45.1002 22.8963 45.4214 21.1194L45.7746 19.1926L46.2135 16.7842L48.9647 16.1954L50.2065 15.9278L52.872 15.3605L53.6856 15.1892L53.9961 15.125L53.5679 15.7994L53.5893 15.7887ZM54.1566 13.8298L46.2028 15.5318L46.6952 12.8664L54.6705 11.143L54.1566 13.8298ZM55.3021 7.33233L54.6062 10.8112L52.1548 11.325L52.3475 10.3616L46.813 11.5177L47.4018 8.41346L49.3608 7.996L49.4678 6.65797L52.5509 6.00501L52.8827 5.93008L52.5081 6.4974L52.4438 7.34304L52.9577 7.236L55.4091 6.72219L55.7303 6.64726L55.2807 7.33233H55.3021Z" fill="black"/>
<path d="M15.5544 11.6782L11.2082 12.6095L10.7479 15.3605L15.1048 14.4292L15.5544 11.6782Z" fill="black"/>
<path d="M58.1067 7.17205L57.0148 5.70557C56.6508 5.21318 56.0192 4.97768 55.4197 5.10614L54.4028 5.32022L54.1566 4.98839C53.7926 4.49599 53.161 4.2605 52.5615 4.38895L49.1359 5.11684C48.4508 5.2667 47.937 5.84473 47.8834 6.5405C47.5837 6.42276 47.2518 6.39064 46.92 6.46557L43.9333 7.11853L43.0555 5.94107C42.6808 5.44867 42.0599 5.21318 41.4497 5.34163L32.5218 7.3005L32.04 6.64754C31.6761 6.15515 31.0552 5.91966 30.4557 6.0374L20.3609 8.03909L20.1147 7.69656C19.7507 7.19346 19.1191 6.95797 18.5089 7.08642L7.9752 9.30219C7.17232 9.47346 6.63707 10.2228 6.73342 11.0363L6.86188 12.1388L4.57101 25.8081L4.20704 25.883C3.77884 25.9794 3.40416 26.247 3.19006 26.6323C2.96526 27.007 2.91173 27.4673 3.04019 27.8847L3.71461 30.1112C3.76813 30.2932 3.85377 30.4537 3.96082 30.6036L5.05273 32.0701C5.35247 32.4768 5.82349 32.7016 6.31592 32.7016C6.43368 32.7016 6.55143 32.6909 6.65848 32.6588L15.4794 30.6678L16.2609 31.7168C16.7212 32.3377 17.5669 32.5304 18.2627 32.1771L23.733 29.3298L28.4217 29.4368C28.6787 29.4368 28.9249 29.3833 29.139 29.287L29.5779 29.8757C29.9419 30.3681 30.552 30.6036 31.1515 30.4752L37.4139 29.2228C37.5745 29.1906 37.7351 29.1478 37.8957 29.0836L38.4844 29.865C38.8484 30.3574 39.4693 30.5929 40.0688 30.4644L42.3061 30.0042C42.7986 29.9078 43.1946 29.576 43.4087 29.1478C43.7727 29.4368 44.2544 29.5546 44.7147 29.4583L47.4338 28.8909C47.862 28.8053 48.2367 28.5377 48.4615 28.163C48.59 27.949 48.7184 27.7349 48.8362 27.5208C49.4142 28.0881 50.2385 28.3022 51.1056 28.1202L52.4652 27.8419C52.8613 27.7563 53.2145 27.5208 53.45 27.189L55.3448 24.4273C55.7302 23.8706 55.7088 23.1321 55.3127 22.5861L54.6383 21.6763L54.8524 20.5309C55.3662 20.3382 55.7516 19.8887 55.8587 19.3428L56.1477 17.8228L56.4153 17.4053C56.7472 16.8808 56.7472 16.2064 56.4046 15.6819C56.4153 15.6284 56.426 15.5856 56.4367 15.5321L56.8649 13.2842C57.0469 13.0808 57.1647 12.8346 57.2289 12.5563L57.8605 9.37712L58.1388 8.95966C58.5028 8.40304 58.4814 7.67515 58.0853 7.13994L58.1067 7.17205ZM57.1754 8.33881L56.7686 8.94895L56.0942 12.3529C56.0621 12.5028 55.955 12.6205 55.8051 12.6633C55.8051 12.6954 55.8051 12.7382 55.8051 12.7704L55.3127 15.3501C55.2806 15.5106 55.1628 15.6284 55.0023 15.6605L54.9166 15.6819L55.4305 16.3563C55.5268 16.4847 55.5375 16.6667 55.4519 16.8059L55.0665 17.416L54.7346 19.1608C54.7025 19.3213 54.5848 19.4391 54.4242 19.4712L53.8675 19.589L53.4072 21.9974L54.3921 23.3247C54.4884 23.4639 54.4991 23.6459 54.3921 23.785L52.4973 26.5467C52.4438 26.6323 52.3474 26.6859 52.2511 26.7073L50.8915 26.9856C50.3991 27.0819 49.9602 26.9749 49.6712 26.6752C49.5534 26.5467 49.2537 26.1506 48.8469 25.594C48.7719 25.4977 48.697 25.3906 48.6435 25.3157C48.3116 26.0757 47.9155 26.825 47.4659 27.5636C47.4124 27.6599 47.3161 27.7242 47.209 27.7456L44.4899 28.3129C44.3401 28.345 44.1795 28.2808 44.0939 28.163L43.0019 26.6966C42.9912 26.6752 42.9805 26.6644 42.9698 26.643C42.9698 26.6323 42.9484 26.6109 42.9484 26.6002C42.9484 26.5788 42.9484 26.5574 42.9377 26.536C42.9377 26.5253 42.9377 26.5039 42.9377 26.4932C42.9377 26.4718 42.9377 26.4397 42.9377 26.4183C42.9377 26.4075 42.9377 26.3968 42.9377 26.3861C42.9377 26.3433 42.9591 26.3112 42.9805 26.2791C43.0983 26.0864 43.2053 25.8937 43.3124 25.7011C43.3445 25.6475 43.3766 25.594 43.4087 25.5298C43.4516 25.4549 43.4837 25.3906 43.5158 25.3157L42.9163 25.6154L42.3918 28.5591C42.3596 28.7197 42.2419 28.8481 42.0813 28.8802L39.844 29.3405C39.6941 29.3726 39.5335 29.3084 39.4479 29.1906L38.356 27.7242C38.356 27.7242 38.356 27.7242 38.356 27.7135C38.3346 27.6813 38.3132 27.6492 38.3025 27.6171C38.2917 27.585 38.281 27.5422 38.281 27.4994C38.281 27.4994 38.281 27.4994 38.281 27.4887C37.9813 27.7991 37.5959 28.0239 37.1998 28.0988L30.9374 29.3512C30.7875 29.3833 30.6377 29.3191 30.5413 29.2013L29.4494 27.7349C29.4494 27.7349 29.4494 27.7349 29.4494 27.7242C29.428 27.6921 29.4066 27.6492 29.3959 27.6171L29.1176 26.5788L28.8821 27.9811C28.8499 28.1737 28.6787 28.3129 28.486 28.3129L23.4867 28.1952L17.7489 31.1816C17.5776 31.2673 17.3635 31.2244 17.2457 31.0639L16.1538 29.5974C16.1538 29.5974 16.1538 29.576 16.1324 29.5653C16.1217 29.5439 16.111 29.5225 16.1003 29.5011C16.1003 29.4904 16.1003 29.469 16.0896 29.4583C16.0896 29.4368 16.0789 29.4154 16.0789 29.394C16.0789 29.394 16.0789 29.394 16.0789 29.3833L6.43368 31.5563C6.43368 31.5563 6.38015 31.5563 6.34804 31.5563C6.23028 31.5563 6.10182 31.5028 6.02689 31.3957L4.93498 29.9292C4.91357 29.8971 4.89216 29.8543 4.87075 29.8115L4.19633 27.585C4.19633 27.585 4.17492 27.478 4.18563 27.4244C4.18563 27.403 4.18563 27.3709 4.19633 27.3495C4.19633 27.3281 4.21774 27.296 4.22845 27.2746C4.28197 27.1783 4.37832 27.114 4.48537 27.0926L5.6201 26.8357L6.88329 19.2785L6.94752 18.9253L7.26867 16.9771L7.90026 13.2199L8.07154 12.2244L7.92167 10.9613C7.92167 10.8971 7.92167 10.8329 7.94308 10.7687C7.94308 10.7473 7.96449 10.7259 7.9752 10.7044C7.99661 10.6723 8.01802 10.6509 8.03943 10.6295C8.07154 10.5974 8.11436 10.576 8.15718 10.5546C8.17859 10.5546 8.2 10.5332 8.23212 10.5332L8.6175 10.4475L18.7551 8.3067C18.7551 8.3067 18.8087 8.3067 18.8408 8.3067C18.8408 8.3067 18.8515 8.3067 18.8622 8.3067C18.8622 8.3067 18.8729 8.3067 18.8836 8.3067C18.9157 8.3067 18.9478 8.3067 18.9692 8.32811C19.0013 8.33881 19.0335 8.36022 19.0549 8.37093C19.0549 8.37093 19.0656 8.37092 19.0763 8.38163C19.0763 8.38163 19.0977 8.39233 19.0977 8.40304C19.0977 8.40304 19.1191 8.42445 19.1298 8.43515C19.1298 8.43515 19.1405 8.44585 19.1512 8.45656L19.847 9.40923L30.6805 7.25769C30.7019 7.25769 30.734 7.25769 30.7554 7.25769C30.7554 7.25769 30.7661 7.25769 30.7768 7.25769C30.7875 7.25769 30.7983 7.25769 30.809 7.25769C30.8304 7.25769 30.8518 7.25769 30.8732 7.26839C30.8839 7.26839 30.8946 7.26839 30.9053 7.27909C30.9267 7.27909 30.9481 7.3005 30.9695 7.31121C30.9695 7.31121 30.9909 7.32191 31.0016 7.33261C31.0231 7.35402 31.0445 7.37543 31.0552 7.39684C31.0552 7.39684 31.0552 7.39684 31.0659 7.40754L32.0079 8.68135L33.8813 8.27459C33.8813 8.27459 33.8813 8.27459 33.892 8.27459L34.1917 8.21036L34.9518 8.03909L35.2515 7.97487C35.2515 7.97487 35.2515 7.97487 35.2622 7.97487L38.5915 7.24698L38.8912 7.18276C38.8912 7.18276 38.8912 7.18276 38.9019 7.18276L41.6745 6.57261C41.7066 6.57261 41.7281 6.57261 41.7602 6.57261C41.7602 6.57261 41.7709 6.57261 41.7816 6.57261C41.7816 6.57261 41.803 6.57261 41.8137 6.57261C41.8351 6.57261 41.8672 6.57261 41.8886 6.59402C41.8886 6.59402 41.8993 6.59402 41.91 6.59402C41.9422 6.60473 41.9743 6.62614 41.9957 6.63684C41.9957 6.63684 41.9957 6.63684 42.0064 6.64754C42.0171 6.65825 42.0385 6.66895 42.0492 6.67966C42.0492 6.67966 42.0492 6.69036 42.0599 6.70107C42.0599 6.70107 42.0599 6.70107 42.0706 6.71177L43.1625 8.17825C43.2375 8.27459 43.2589 8.40304 43.2268 8.52078L44.8753 8.17825L46.3419 7.85712L47.1448 7.68585C47.1448 7.68585 47.1983 7.68585 47.2304 7.68585C47.2304 7.68585 47.2304 7.68585 47.2411 7.68585C47.2411 7.68585 47.2518 7.68585 47.2625 7.68585C47.2839 7.68585 47.3161 7.68585 47.3375 7.69656C47.3375 7.69656 47.3482 7.69656 47.3589 7.69656C47.391 7.70726 47.4124 7.71797 47.4445 7.73938C47.4445 7.73938 47.4445 7.73938 47.4552 7.75008C47.4659 7.75008 47.4873 7.77149 47.498 7.78219C47.498 7.78219 47.498 7.7929 47.5088 7.8036C47.5088 7.8036 47.5088 7.8036 47.5195 7.81431L47.6693 8.00698L48.9432 7.73938L49.0289 6.69036C49.0289 6.69036 49.0396 6.61543 49.0503 6.58332C49.0931 6.45487 49.2001 6.35853 49.3393 6.33712L52.7649 5.60923C52.7649 5.60923 52.8184 5.60923 52.8505 5.60923C52.8505 5.60923 52.8613 5.60923 52.872 5.60923C52.8827 5.60923 52.9041 5.60923 52.9148 5.60923C52.9362 5.60923 52.9576 5.60923 52.979 5.61994C52.9897 5.61994 53.0004 5.61994 53.0218 5.63064C53.0432 5.63064 53.0647 5.65205 53.0754 5.66276C53.0861 5.66276 53.0968 5.67346 53.1075 5.68416C53.1289 5.69487 53.1396 5.71628 53.161 5.73769C53.161 5.73769 53.1717 5.74839 53.1824 5.75909L53.8889 6.70107L55.6553 6.32642C55.6874 6.32642 55.7088 6.32642 55.7409 6.32642C55.7409 6.32642 55.7516 6.32642 55.7623 6.32642C55.773 6.32642 55.7837 6.32642 55.8051 6.32642C55.8265 6.32642 55.8479 6.32642 55.8694 6.33712C55.8801 6.33712 55.8908 6.33712 55.9015 6.34783C55.9229 6.34783 55.9443 6.36923 55.955 6.37994C55.9657 6.37994 55.9764 6.39064 55.9871 6.40135C56.0085 6.41205 56.0192 6.43346 56.0406 6.45487C56.0406 6.45487 56.0513 6.46557 56.062 6.47628L57.154 7.94276C57.2503 8.07121 57.261 8.25318 57.1647 8.39233L57.1754 8.33881Z" fill="white"/>
<path d="M8.89588 26.4609L9.28126 24.1595L13.6489 23.1961L13.3813 24.8125L16.2823 24.1702L18.4447 11.0789L18.8408 8.7026V8.64908L8.7139 10.7899L8.32852 10.8756L8.47839 12.2029L8.30711 13.2519L7.35436 18.968L6.86193 21.8795L5.98412 27.146L4.58177 27.4564L5.25618 29.6829L16.1646 27.2209L16.5714 24.7696L8.91729 26.4823L8.89588 26.4609ZM11.2082 12.6096L15.5544 11.6891L15.1048 14.4294L10.7478 15.3606L11.2082 12.6096ZM10.2554 18.3043L14.6124 17.3623L14.1306 20.2525L9.77369 21.2051L10.2554 18.3043Z" fill="white"/>
<path d="M18.616 16.3454L29.4495 13.9477L29.6957 12.4491L29.8242 11.6998L30.1132 9.93357L30.2416 9.16286L30.3915 8.2423L30.7662 7.61075L30.4879 7.66427L28.1863 8.12455L22.1487 9.32343L19.6865 9.81582L19.4296 11.3786L19.3011 12.1815L19.0014 14.0226L18.616 16.3668V16.3454ZM21.8918 10.8541L27.9294 9.62315L27.8009 10.4046L21.7526 11.6569L21.881 10.8648L21.8918 10.8541ZM21.4635 13.4767L27.5119 12.1922L27.3834 12.9522L21.3351 14.2581L21.4635 13.4874V13.4767Z" fill="white"/>
<path d="M28.6145 18.968L29.321 14.7077H29.3103L27.0087 15.2322L20.9497 16.5916L18.4983 17.1375H18.4876L17.7596 21.5798L20.2325 20.9803L25.4244 19.7387L25.7134 17.9939L20.5215 19.2141L20.6821 18.2187L26.7411 16.8271L26.3022 19.5246L28.6145 18.968Z" fill="white"/>
<path d="M28.4967 19.7065L26.1845 20.2739L17.6526 22.3398L17.385 23.9882L17.0531 26.0113L19.6437 24.684L19.8578 23.3781L25.8954 21.8795C25.8098 22.0829 25.6278 22.2863 25.4244 22.3826L18.5625 25.9043L18.0165 26.1826L16.8925 26.7606L16.475 29.3296L22.3093 26.2896L27.4048 26.4074L27.8116 23.9454L26.8589 23.9133H26.7197C27.4905 23.3032 28.0685 22.404 28.2077 21.537L28.2505 21.2908L28.4111 20.2953L28.7858 19.653L28.5074 19.7172L28.4967 19.7065Z" fill="white"/>
<path d="M33.9456 9.10934L34.2881 8.53131L33.9884 8.59554L31.2693 9.19497L31.0659 11.6355L33.7743 11.0468L33.9456 9.10934Z" fill="white"/>
<path d="M39.3516 18.5184L38.5701 18.6789L38.9341 16.7629L39.2338 15.1679L39.8869 13.6158L39.5122 13.7015L33.1534 15.0823L32.6717 17.8868L36.5897 17.0519L36.2043 19.1927L29.032 20.6913L29.3317 23.2389L35.7012 21.933L35.3158 24.0525L29.1711 25.2941L29.7599 27.4778L36.0224 26.2254C36.6646 26.097 37.2962 25.4547 37.414 24.791L38.0456 21.4513L38.8164 21.2908L39.3409 18.5291L39.3516 18.5184Z" fill="white"/>
<path d="M37.414 10.2654L38.1098 7.69639L35.3479 8.30653L35.0482 8.37076L35.2088 8.83104L34.6842 10.8541L37.414 10.2654Z" fill="white"/>
<path d="M41.0644 9.47329L41.7816 6.89357L38.9983 7.50371L38.6986 7.56794L38.8485 8.03892L38.2918 10.0727L41.0644 9.47329Z" fill="white"/>
<path d="M29.4281 18.6682L31.5691 18.2294L32.2756 14.2046L40.5292 12.4705L41.1072 9.79442L32.9393 11.5499L30.5307 12.0637L30.2416 12.1279L30.4343 12.6632L30.0704 14.8147L29.4281 18.6682Z" fill="white"/>
<path d="M52.8934 15.3606L50.2279 15.9279L48.9861 16.1956L46.2349 16.7843L45.796 19.1927L45.4428 21.1195C45.1216 22.8857 44.3937 24.7054 43.3339 26.4609L46.0529 25.8936C47.1234 24.1381 47.8514 22.3184 48.1832 20.5415L48.5472 18.604L49.789 18.3364L48.6971 24.1595C48.5686 24.8339 49.0396 25.2727 49.7355 25.1229L51.095 24.8446L52.9898 22.0829L51.566 22.3826L52.4438 17.7798L53.2574 17.6085L53.6107 15.7888L54.0389 15.1144L53.7284 15.1787L52.9148 15.3499L52.8934 15.3606Z" fill="white"/>
<path d="M55.4198 6.7223H55.4091L52.9577 7.24681L52.4438 7.35385L52.508 6.50821L52.8827 5.93019L52.5509 6.00512L49.4571 6.65807L49.3608 8.00681L47.4018 8.41357L46.813 11.5178L52.3475 10.3617L52.1548 11.3251L54.6062 10.8113L55.302 7.33244L55.7517 6.65807L55.4198 6.7223Z" fill="white"/>
<path d="M46.2028 15.5319L54.1566 13.8299L54.6705 11.1431L46.6845 12.8665L46.2028 15.5319Z" fill="white"/>
<path d="M44.9717 20.52L47.2626 8.00681L44.9931 8.50991L41.9208 9.18427L38.6879 27.4778L40.9252 27.0175L41.4926 23.8812L42.8628 23.1961C43.944 22.6502 44.8004 21.5798 44.9931 20.5308L44.9717 20.52ZM42.82 20.5522C42.7772 20.8091 42.5631 21.0767 42.2955 21.2158L41.9315 21.4085L43.7728 11.1753L44.5542 11.004L42.8307 20.5522H42.82Z" fill="white"/>
</svg>
